HIERARCHY
ROOT Hips
{
  OFFSET 0.000000 0.000000 0.000000
  CHANNELS 6 Xposition Yposition Zposition Xrotation Yrotation Zrotation
  JOINT Spine
  {
    OFFSET 0.556506 22.910117 -8.702633
    CHANNELS 3 Xrotation Yrotation Zrotation
    JOINT Chest
    {
      OFFSET 0.556506 22.910117 -8.702633
      CHANNELS 3 Xrotation Yrotation Zrotation
      JOINT Neck
      {
        OFFSET -0.117578 8.251941 -3.732120
        CHANNELS 3 Xrotation Yrotation Zrotation
        JOINT Head
        {
          OFFSET 0.165086 7.288370 -7.297039
          CHANNELS 3 Xrotation Yrotation Zrotation
          End Site
          {
            OFFSET 0.049526 2.186511 -2.189112
          }
        }
      }
      JOINT LeftShoulder
      {
        OFFSET 17.839599 -0.500831 -0.702444
        CHANNELS 3 Xrotation Yrotation Zrotation
        JOINT LeftArm
        {
          OFFSET 9.079516 -20.622869 2.588555
          CHANNELS 3 Xrotation Yrotation Zrotation
          JOINT LeftForeArm
          {
            OFFSET 5.220428 -21.248619 -7.941063
            CHANNELS 3 Xrotation Yrotation Zrotation
            JOINT LeftHand
            {
              OFFSET -0.200181 -5.027381 -2.224194
              CHANNELS 3 Xrotation Yrotation Zrotation
              End Site
              {
                OFFSET -0.060054 -1.508214 -0.667258
              }
            }
          }
        }
      }
      JOINT RightShoulder
      {
        OFFSET -17.839599 0.500831 0.702444
        CHANNELS 3 Xrotation Yrotation Zrotation
        JOINT RightArm
        {
          OFFSET -10.245414 -21.462999 7.460948
          CHANNELS 3 Xrotation Yrotation Zrotation
          JOINT RightForeArm
          {
            OFFSET -6.268969 -22.648376 -4.828816
            CHANNELS 3 Xrotation Yrotation Zrotation
            JOINT RightHand
            {
              OFFSET -0.212581 -5.374321 -1.680675
              CHANNELS 3 Xrotation Yrotation Zrotation
              End Site
              {
                OFFSET -0.063774 -1.612296 -0.504203
              }
            }
          }
        }
      }
    }
  }
  JOINT LeftUpLeg
  {
    OFFSET 11.658093 -0.477353 -0.993827
    CHANNELS 3 Xrotation Yrotation Zrotation
    JOINT LeftLeg
    {
      OFFSET -4.436175 -38.948665 4.498381
      CHANNELS 3 Xrotation Yrotation Zrotation
      JOINT LeftFoot
      {
        OFFSET 5.752072 -36.997542 12.776506
        CHANNELS 3 Xrotation Yrotation Zrotation
        End Site
        {
          OFFSET 1.725622 -11.099263 3.832952
        }
      }
    }
  }
  JOINT RightUpLeg
  {
    OFFSET -11.658093 0.477353 0.993827
    CHANNELS 3 Xrotation Yrotation Zrotation
    JOINT RightLeg
    {
      OFFSET 1.097931 -37.821674 7.428961
      CHANNELS 3 Xrotation Yrotation Zrotation
      JOINT RightFoot
      {
        OFFSET -0.709859 -38.281388 13.423531
        CHANNELS 3 Xrotation Yrotation Zrotation
        End Site
        {
          OFFSET -0.212958 -11.484416 4.027059
        }
      }
    }
  }
}
MOTION
Frames: 17
Frame Time: 0.083333
-7.888705 60.000000 -22.730443 -6.225476 -0.970353 -2.537850 -6.225476 -0.970353 -2.537850 0.000000 0.000000 0.000000 -9.969165 4.454687 3.523892 5.000000 0.000000 0.000000 14.734317 5.214103 47.872965 20.721942 -6.484430 13.224612 0.000000 0.000000 0.000000 0.000000 0.000000 0.000000 10.926984 -13.549560 -43.081282 27.478648 4.998070 -14.006206 0.000000 0.000000 0.000000 0.000000 0.000000 0.000000 16.129151 -1.885288 2.403613 1.156902 -0.888762 -3.196620 0.000000 0.000000 0.000000 10.751396 -0.212340 -5.162075 9.772563 -2.056264 -7.302366 0.000000 0.000000 0.000000
-7.487937 60.000000 -23.203219 -6.112127 -0.882916 -2.338910 -6.112127 -0.882916 -2.338910 0.000000 0.000000 0.000000 -9.103559 4.064877 3.264584 5.000000 0.000000 0.000000 13.947209 5.273573 44.196206 20.016812 -6.363836 13.123350 0.000000 0.000000 0.000000 0.000000 0.000000 0.000000 11.255365 -13.210677 -41.102640 27.368828 4.742577 -13.501761 0.000000 0.000000 0.000000 0.000000 0.000000 0.000000 17.620288 -2.093282 2.542826 4.205254 -0.442763 -3.612616 0.000000 0.000000 0.000000 12.398112 -0.087096 -5.101204 9.530889 -2.061000 -7.274243 0.000000 0.000000 0.000000
-7.272133 60.000000 -23.612893 -5.641020 -0.752273 -2.037529 -5.641020 -0.752273 -2.037529 0.000000 0.000000 0.000000 -8.054308 3.459642 2.824163 5.000000 0.000000 0.000000 12.360336 5.242019 41.352718 18.382565 -6.125814 12.951801 0.000000 0.000000 0.000000 0.000000 0.000000 0.000000 12.120360 -12.848168 -38.733166 26.889239 4.414184 -12.888217 0.000000 0.000000 0.000000 0.000000 0.000000 0.000000 18.648846 -2.252127 3.060868 7.595208 -0.006450 -4.271516 0.000000 0.000000 0.000000 15.776616 0.167802 -4.974428 8.611987 -2.097311 -7.236429 0.000000 0.000000 0.000000
-7.326463 60.000000 -23.605654 -5.171189 -0.575467 -1.627060 -5.171189 -0.575467 -1.627060 0.000000 0.000000 0.000000 -6.943369 2.837101 2.358379 5.000000 0.000000 0.000000 10.836840 5.125719 37.866363 17.441558 -5.770174 12.444840 0.000000 0.000000 0.000000 0.000000 0.000000 0.000000 13.112644 -12.558922 -36.596050 25.617498 3.950799 -12.066662 0.000000 0.000000 0.000000 0.000000 0.000000 0.000000 19.763398 -2.373539 2.357396 5.847863 -0.124769 -3.615890 0.000000 0.000000 0.000000 17.118440 0.276501 -4.761268 7.210762 -2.185475 -7.292198 0.000000 0.000000 0.000000
-7.768714 60.000000 -23.231171 -5.171253 -0.483120 -1.412900 -5.171253 -0.483120 -1.412900 0.000000 0.000000 0.000000 -6.020895 2.481074 2.098341 5.000000 0.000000 0.000000 9.350904 4.899900 33.382115 16.404203 -5.286443 11.687233 0.000000 0.000000 0.000000 0.000000 0.000000 0.000000 12.969862 -12.144285 -34.218314 23.457634 3.375736 -11.053101 0.000000 0.000000 0.000000 0.000000 0.000000 0.000000 18.926299 -2.224216 0.546418 1.433153 -0.319580 -1.734782 0.000000 0.000000 0.000000 15.778131 0.212329 -4.282207 4.128666 -2.399089 -7.461332 0.000000 0.000000 0.000000
-8.714481 60.000000 -22.651915 -4.857007 -0.414414 -1.243556 -4.857007 -0.414414 -1.243556 0.000000 0.000000 0.000000 -4.937500 2.118917 1.829563 5.000000 0.000000 0.000000 7.831554 4.597929 29.397844 16.112488 -4.556538 10.342575 0.000000 0.000000 0.000000 0.000000 0.000000 0.000000 12.195658 -11.564713 -31.507512 20.805984 2.889992 -10.169050 0.000000 0.000000 0.000000 0.000000 0.000000 0.000000 12.919209 -1.475993 -1.699298 -1.103972 0.089347 0.743183 0.000000 0.000000 0.000000 13.984564 0.126687 -3.776891 1.672518 -2.648138 -7.825759 0.000000 0.000000 0.000000
-9.780332 60.000000 -21.500600 -4.067583 -0.311003 -0.974398 -4.067583 -0.311003 -0.974398 0.000000 0.000000 0.000000 -3.800157 1.522600 1.334063 5.000000 0.000000 0.000000 8.184712 4.494573 23.917664 16.789462 -3.650442 8.549756 0.000000 0.000000 0.000000 0.000000 0.000000 0.000000 10.673328 -10.520085 -27.174821 17.038083 2.397456 -9.205476 0.000000 0.000000 0.000000 0.000000 0.000000 0.000000 10.071586 -1.241352 -3.249752 -0.261092 0.760157 2.363510 0.000000 0.000000 0.000000 13.390154 0.107321 -3.560482 1.329667 -2.765199 -8.115096 0.000000 0.000000 0.000000
-10.504725 60.000000 -18.891396 -2.806931 -0.266003 -0.820853 -2.806931 -0.266003 -0.820853 0.000000 0.000000 0.000000 -2.383580 0.992365 0.895263 5.000000 0.000000 0.000000 9.526780 4.605586 17.858163 17.536880 -2.614084 6.479149 0.000000 0.000000 0.000000 0.000000 0.000000 0.000000 9.679005 -9.052036 -20.742853 12.660554 1.828470 -7.877547 0.000000 0.000000 0.000000 0.000000 0.000000 0.000000 6.791254 -1.010520 -4.397346 2.468887 1.639010 4.015334 0.000000 0.000000 0.000000 13.075970 0.124565 -3.103649 1.635529 -2.872069 -8.490692 0.000000 0.000000 0.000000
-10.740141 60.000000 -15.267104 -2.095162 -0.278534 -0.822761 -2.095162 -0.278534 -0.822761 0.000000 0.000000 0.000000 -1.565518 0.569809 0.517482 5.000000 0.000000 0.000000 9.780355 4.525083 11.844824 15.185991 -1.639444 4.612870 0.000000 0.000000 0.000000 0.000000 0.000000 0.000000 9.659113 -7.589790 -13.692932 10.207883 1.370157 -6.464511 0.000000 0.000000 0.000000 0.000000 0.000000 0.000000 4.504076 -0.835007 -4.357887 5.940073 2.399406 5.246373 0.000000 0.000000 0.000000 12.899805 0.166163 -2.520952 2.619787 -2.897418 -8.764838 0.000000 0.000000 0.000000
-10.473889 60.000000 -10.113048 -2.546207 -0.275359 -0.832306 -2.546207 -0.275359 -0.832306 0.000000 0.000000 0.000000 -1.180722 0.140587 0.110552 5.000000 0.000000 0.000000 8.868148 4.033931 6.509457 11.030625 -1.018645 3.232646 0.000000 0.000000 0.000000 0.000000 0.000000 0.000000 10.436778 -6.286772 -6.508593 8.124358 0.962692 -5.026004 0.000000 0.000000 0.000000 0.000000 0.000000 0.000000 2.387647 -0.638241 -3.963090 8.083625 2.724486 5.645866 0.000000 0.000000 0.000000 12.055646 0.257250 -1.133086 3.569226 -3.043998 -9.446681 0.000000 0.000000 0.000000
-9.960625 60.000000 -5.669834 -2.834657 -0.323507 -0.962431 -2.834657 -0.323507 -0.962431 0.000000 0.000000 0.000000 -0.929783 -0.189096 -0.207657 5.000000 0.000000 0.000000 6.085230 2.724338 2.257554 5.734908 -0.573914 1.996594 0.000000 0.000000 0.000000 0.000000 0.000000 0.000000 10.190758 -5.552063 -3.691301 6.795542 0.574842 -3.501955 0.000000 0.000000 0.000000 0.000000 0.000000 0.000000 0.009396 -0.346035 -3.146473 10.058376 2.795034 5.152199 0.000000 0.000000 0.000000 9.950688 0.374634 0.744199 5.287066 -3.332029 -10.818779 0.000000 0.000000 0.000000
-9.560249 60.000000 -3.310982 -2.669015 -0.330382 -0.973226 -2.669015 -0.330382 -0.973226 0.000000 0.000000 0.000000 -0.408487 -0.446355 -0.452522 5.000000 0.000000 0.000000 3.012691 1.083187 -2.236448 2.285467 -0.432351 1.383882 0.000000 0.000000 0.000000 0.000000 0.000000 0.000000 8.837428 -4.371328 -1.168217 5.502169 0.174971 -1.806070 0.000000 0.000000 0.000000 0.000000 0.000000 0.000000 -2.382768 0.109847 -1.513976 11.207304 2.593332 3.782449 0.000000 0.000000 0.000000 7.172192 0.384753 1.385349 7.027049 -3.340505 -11.377474 0.000000 0.000000 0.000000
-9.357156 60.000000 -3.034316 -2.066891 -0.332730 -0.957096 -2.066891 -0.332730 -0.957096 0.000000 0.000000 0.000000 0.580601 -0.554794 -0.549042 5.000000 0.000000 0.000000 1.739418 0.269514 -4.530656 1.592056 -0.227732 0.796979 0.000000 0.000000 0.000000 0.000000 0.000000 0.000000 7.188886 -3.010339 1.287178 4.260502 -0.155263 -0.326863 0.000000 0.000000 0.000000 0.000000 0.000000 0.000000 -4.679014 0.679654 1.002346 11.536322 2.106237 1.647902 0.000000 0.000000 0.000000 3.685806 0.090176 -0.087536 6.621906 -2.942593 -10.005631 0.000000 0.000000 0.000000
-9.093747 60.000000 -2.360171 -0.784998 -0.355435 -0.966240 -0.784998 -0.355435 -0.966240 0.000000 0.000000 0.000000 2.534180 -0.707733 -0.681286 5.000000 0.000000 0.000000 2.341016 0.560074 -4.532818 2.615936 -0.033553 0.410931 0.000000 0.000000 0.000000 0.000000 0.000000 0.000000 6.677529 -2.511637 2.245753 4.616522 -0.298303 0.156116 0.000000 0.000000 0.000000 0.000000 0.000000 0.000000 -2.239611 0.520105 2.265992 8.779393 1.454774 0.704447 0.000000 0.000000 0.000000 3.517265 -0.426811 -3.204172 3.917402 -2.262679 -7.005459 0.000000 0.000000 0.000000
-8.759252 60.000000 -1.636269 0.019338 -0.366447 -0.964122 0.019338 -0.366447 -0.964122 0.000000 0.000000 0.000000 3.426303 -0.807070 -0.775671 5.000000 0.000000 0.000000 3.297525 1.061626 -4.171322 3.666357 0.031836 0.365876 0.000000 0.000000 0.000000 0.000000 0.000000 0.000000 7.016981 -2.878930 1.503493 5.526039 -0.341195 0.118961 0.000000 0.000000 0.000000 0.000000 0.000000 0.000000 0.961956 0.355303 4.311042 3.941075 0.344210 -0.856890 0.000000 0.000000 0.000000 3.229793 -0.456418 -3.282395 3.331406 -2.316441 -7.084877 0.000000 0.000000 0.000000
-8.414794 60.000000 -1.121234 -0.108740 -0.366895 -0.970195 -0.108740 -0.366895 -0.970195 0.000000 0.000000 0.000000 2.911206 -0.872857 -0.849787 5.000000 0.000000 0.000000 3.507728 1.177674 -4.010415 4.005593 -0.035506 0.567247 0.000000 0.000000 0.000000 0.000000 0.000000 0.000000 7.098696 -3.090629 0.854760 5.831678 -0.343985 0.063918 0.000000 0.000000 0.000000 0.000000 0.000000 0.000000 0.155277 0.499483 4.508609 4.804184 0.427294 -1.036111 0.000000 0.000000 0.000000 3.048147 -0.496620 -3.460585 3.119406 -2.311368 -7.035729 0.000000 0.000000 0.000000
-8.161600 60.000000 -0.908105 -0.293437 -0.374150 -0.996211 -0.293437 -0.374150 -0.996211 0.000000 0.000000 0.000000 2.790844 -0.913510 -0.893452 5.000000 0.000000 0.000000 3.963545 1.399333 -3.971447 4.570192 -0.068009 0.705780 0.000000 0.000000 0.000000 0.000000 0.000000 0.000000 7.438385 -3.439657 0.137168 6.060423 -0.319584 -0.074147 0.000000 0.000000 0.000000 0.000000 0.000000 0.000000 0.133783 0.468974 4.219450 4.805577 0.507251 -0.771942 0.000000 0.000000 0.000000 3.434083 -0.520821 -3.742447 3.363535 -2.262690 -6.921088 0.000000 0.000000 0.000000
